<?xml version="1.0" encoding="UTF-8" standalone="no"?>
<!-- Uploaded to: SVG Repo, www.svgrepo.com, Generator: SVG Repo Mixer Tools -->

<svg
   width="800px"
   height="800px"
   viewBox="0 0 15 15"
   fill="none"
   version="1.1"
   id="svg1"
   sodipodi:docname="ManagerDependencies.svg"
   inkscape:version="1.4.4 (dcaf3e7, 2026-05-05)"
   xmlns:inkscape="http://www.inkscape.org/namespaces/inkscape"
   xmlns:sodipodi="http://sodipodi.sourceforge.net/DTD/sodipodi-0.dtd"
   xmlns="http://www.w3.org/2000/svg"
   xmlns:svg="http://www.w3.org/2000/svg">
  <defs
     id="defs1" />
  <sodipodi:namedview
     id="namedview1"
     pagecolor="#ffffff"
     bordercolor="#000000"
     borderopacity="0.25"
     inkscape:showpageshadow="2"
     inkscape:pageopacity="0.0"
     inkscape:pagecheckerboard="true"
     inkscape:deskcolor="#d1d1d1"
     inkscape:zoom="1.30375"
     inkscape:cx="400"
     inkscape:cy="400"
     inkscape:window-width="2160"
     inkscape:window-height="1261"
     inkscape:window-x="1911"
     inkscape:window-y="-9"
     inkscape:window-maximized="1"
     inkscape:current-layer="svg1" />
  <path
     fill-rule="evenodd"
     clip-rule="evenodd"
     d="M4.67129 3.14634C4.47603 3.34161 4.47603 3.65819 4.67129 3.85345L7.14616 6.32833C7.34142 6.52359 7.65801 6.52359 7.85327 6.32833L10.3281 3.85345C10.5234 3.65819 10.5234 3.34161 10.3281 3.14634L7.85327 0.671471C7.65801 0.476209 7.34142 0.476209 7.14616 0.671471L4.67129 3.14634ZM7.49971 5.26766L5.73195 3.4999L7.49971 1.73213L9.26748 3.4999L7.49971 5.26766ZM8.67129 7.14634C8.47603 7.34161 8.47603 7.65819 8.67129 7.85345L11.1462 10.3283C11.3414 10.5236 11.658 10.5236 11.8533 10.3283L14.3281 7.85345C14.5234 7.65819 14.5234 7.34161 14.3281 7.14634L11.8533 4.67147C11.658 4.47621 11.3414 4.47621 11.1462 4.67147L8.67129 7.14634ZM11.4997 9.26766L9.73195 7.4999L11.4997 5.73213L13.2675 7.4999L11.4997 9.26766ZM4.67129 11.8535C4.47603 11.6582 4.47603 11.3416 4.67129 11.1463L7.14616 8.67147C7.34142 8.47621 7.65801 8.47621 7.85327 8.67147L10.3281 11.1463C10.5234 11.3416 10.5234 11.6582 10.3281 11.8535L7.85327 14.3283C7.65801 14.5236 7.34142 14.5236 7.14616 14.3283L4.67129 11.8535ZM5.73195 11.4999L7.49971 13.2677L9.26748 11.4999L7.49971 9.73213L5.73195 11.4999ZM0.671288 7.14649C0.476026 7.34175 0.476026 7.65834 0.671288 7.8536L3.14616 10.3285C3.34142 10.5237 3.65801 10.5237 3.85327 10.3285L6.32814 7.8536C6.5234 7.65834 6.5234 7.34175 6.32814 7.14649L3.85327 4.67162C3.65801 4.47636 3.34142 4.47636 3.14616 4.67162L0.671288 7.14649ZM3.49972 9.26781L1.73195 7.50005L3.49972 5.73228L5.26748 7.50005L3.49972 9.26781Z"
     fill="#000000"
     id="path1"
     style="fill:#ffffff" />
</svg>
