<?xml version="1.0" encoding="UTF-8" standalone="no"?>
<!-- Uploaded to: SVG Repo, www.svgrepo.com, Generator: SVG Repo Mixer Tools -->

<svg
   width="800px"
   height="800px"
   viewBox="0 0 24 24"
   fill="none"
   version="1.1"
   id="svg1"
   sodipodi:docname="Rescan.svg"
   inkscape:version="1.4.4 (dcaf3e7, 2026-05-05)"
   xmlns:inkscape="http://www.inkscape.org/namespaces/inkscape"
   xmlns:sodipodi="http://sodipodi.sourceforge.net/DTD/sodipodi-0.dtd"
   xmlns="http://www.w3.org/2000/svg"
   xmlns:svg="http://www.w3.org/2000/svg">
  <defs
     id="defs1" />
  <sodipodi:namedview
     id="namedview1"
     pagecolor="#ffffff"
     bordercolor="#000000"
     borderopacity="0.25"
     inkscape:showpageshadow="2"
     inkscape:pageopacity="0.0"
     inkscape:pagecheckerboard="true"
     inkscape:deskcolor="#d1d1d1"
     inkscape:zoom="1.30375"
     inkscape:cx="400"
     inkscape:cy="400"
     inkscape:window-width="2160"
     inkscape:window-height="1261"
     inkscape:window-x="1911"
     inkscape:window-y="-9"
     inkscape:window-maximized="1"
     inkscape:current-layer="svg1" />
  <path
     d="M8 4H5C4.44772 4 4 4.44772 4 5V8M16 4H19C19.5523 4 20 4.44772 20 5V8M4 16V19C4 19.5523 4.44772 20 5 20H8M20 16V19C20 19.5523 19.5523 20 19 20H16M6 12C6 12 7.71429 8 12 8C16.2857 8 18 12 18 12C18 12 16.2857 16 12 16C7.71429 16 6 12 6 12ZM14 12C14 13.1046 13.1046 14 12 14C10.8954 14 10 13.1046 10 12C10 10.8954 10.8954 10 12 10C13.1046 10 14 10.8954 14 12Z"
     stroke="#464455"
     stroke-linecap="round"
     stroke-linejoin="round"
     id="path1"
     style="fill:#ffffff;fill-opacity:0;stroke:#ffffff" />
</svg>
